# xmcd CD database file
#
# Track frame offsets:
#	150
#	19565
#	53251
#	72013
#	94123
#	116534
#	167253
#	185534
#	211577
#	232643
#
# Disc length: 3337 seconds
#
# Revision: 0
# Processed by: cddbd v1.5.2PL0 Copyright (c) Steve Scherf et al.
# Submitted via: CDex 1.51
#
DISCID=640d070a
DTITLE=Anders Osborne - Black Eye Galaxy
DYEAR=2012
DGENRE=Blues
TTITLE0=Send Me A Friend
TTITLE1=Mind Of A Junkie
TTITLE2=Lean On Me/Believe In You
TTITLE3=When Will I See You Again?
TTITLE4=Black Tar
TTITLE5=Black Eye Galaxy
TTITLE6=Tracking My Roots
TTITLE7=Louisiana Gold
TTITLE8=Dancing In The Wind
TTITLE9=Anders Osborne - Higher Ground
EXTD=YEAR: 2012
EXTT0=
EXTT1=
EXTT2=
EXTT3=
EXTT4=
EXTT5=
EXTT6=
EXTT7=
EXTT8=
EXTT9=
PLAYORDER=
